<svg width="64" height="64" viewBox="0 0 64 64" fill="none" xmlns="http://www.w3.org/2000/svg">
<circle cx="32" cy="32" r="31.7949" stroke="#F5F5F5" stroke-width="0.410256"/>
<path fill-rule="evenodd" clip-rule="evenodd" d="M15.5898 32C15.5898 31.6858 15.7133 31.3843 15.9331 31.1621C16.1529 30.9399 16.4511 30.815 16.7619 30.815H44.4068L37.0296 23.3589C36.8096 23.1364 36.6859 22.8346 36.6859 22.5199C36.6859 22.2052 36.8096 21.9034 37.0296 21.6809C37.2497 21.4584 37.5482 21.3334 37.8595 21.3334C38.1707 21.3334 38.4692 21.4584 38.6893 21.6809L48.066 31.161C48.1752 31.2711 48.2618 31.4019 48.3209 31.5459C48.3799 31.6898 48.4104 31.8442 48.4104 32C48.4104 32.1559 48.3799 32.3103 48.3209 32.4542C48.2618 32.5982 48.1752 32.729 48.066 32.839L38.6893 42.3192C38.4692 42.5417 38.1707 42.6667 37.8595 42.6667C37.5482 42.6667 37.2497 42.5417 37.0296 42.3192C36.8096 42.0967 36.6859 41.7949 36.6859 41.4802C36.6859 41.1655 36.8096 40.8637 37.0296 40.6412L44.4068 33.1851H16.7619C16.4511 33.1851 16.1529 33.0602 15.9331 32.838C15.7133 32.6157 15.5898 32.3143 15.5898 32Z" fill="#F5F5F5"/>
</svg>


